<svg width="20" height="20" viewBox="0 0 20 20" fill="none" xmlns="http://www.w3.org/2000/svg">
<path d="M1.66805 0.00352419C1.66805 0.0810564 1.66458 0.133919 1.66805 0.186782C1.79985 1.65285 1.93166 3.11891 2.06 4.5885C2.24036 6.66777 2.41726 8.74704 2.59763 10.8228C2.80227 13.1558 3.01039 15.4853 3.2081 17.8183C3.22197 17.9875 3.28094 18.0615 3.43702 18.1038C5.65692 18.724 7.86988 19.3478 10.0898 19.9645C10.2389 20.0068 10.4193 20.0139 10.5684 19.9716C12.7953 19.3513 15.0186 18.7205 17.2455 18.0967C17.4154 18.0474 17.4744 17.9698 17.4883 17.7936C17.5576 16.9126 17.6409 16.028 17.7172 15.147C17.8455 13.688 17.9704 12.2289 18.0987 10.7699C18.2479 9.05717 18.4005 7.34794 18.5497 5.63518C18.6606 4.35942 18.7786 3.08719 18.8896 1.81143C18.9416 1.21232 18.9867 0.613209 19.0353 0H1.66805V0.00352419ZM15.6846 5.09246C15.5701 6.38231 15.4557 7.67569 15.3412 8.96554C15.2094 10.4492 15.0776 11.9329 14.9458 13.4131C14.9076 13.8395 14.8521 14.2659 14.8417 14.6959C14.8348 14.9249 14.7377 14.9849 14.5504 15.0377C13.2115 15.4042 11.8761 15.7813 10.5407 16.1549C10.4817 16.1725 10.4262 16.1937 10.3673 16.2113C10.3464 16.2007 10.3256 16.1937 10.3014 16.1831C8.8723 15.7884 7.44324 15.3901 6.01418 14.9884C5.95522 14.9708 5.87891 14.8756 5.87197 14.8086C5.77138 13.7091 5.6812 12.6096 5.58408 11.4889H7.76582C7.80397 11.9294 7.8456 12.377 7.88028 12.8281C7.9115 13.2439 7.90803 13.2439 8.29305 13.3496C8.98329 13.5364 9.67701 13.7197 10.3673 13.9029L10.3603 13.8853C11.1165 13.6809 11.8726 13.48 12.6288 13.2615C12.6981 13.2404 12.7779 13.1276 12.7883 13.0501C12.8334 12.7118 12.8577 12.3699 12.8855 12.0316C12.9305 11.4853 12.9756 10.9391 13.0242 10.3682H10.3603L10.3673 10.3541C10.3499 10.3541 10.3291 10.3541 10.3118 10.3541H5.48349C5.41759 9.62457 5.35515 8.90211 5.28925 8.1585H10.3152C10.3326 8.1585 10.3534 8.1585 10.3707 8.1585L10.3638 8.1444H13.2184C13.2843 7.3867 13.3502 6.64662 13.4161 5.89245H10.3603L10.3673 5.87835C10.3499 5.87835 10.3291 5.87835 10.3118 5.87835C8.60175 5.88187 6.89174 5.88187 5.18172 5.8854C5.15744 5.8854 5.13316 5.87483 5.08807 5.86073C5.02564 5.14179 4.95973 4.42286 4.8973 3.68278H10.3118C10.3291 3.68278 10.3499 3.68278 10.3673 3.68278L10.3603 3.66868H15.7991C15.7609 4.16207 15.7228 4.62726 15.6846 5.09246Z" fill="#3DCFB6"/>
</svg>
