<svg width="16" height="20" viewBox="0 0 16 20" fill="none" xmlns="http://www.w3.org/2000/svg">
<path d="M0.5 16.1147L2.96402 0.383909C3.00193 0.156476 3.22937 -0.0330515 3.45682 0.00485401C3.60845 0.0427595 3.72218 0.11857 3.79799 0.232287L6.33783 5.00838L7.36134 3.0752C7.47506 2.84777 7.74042 2.77195 7.96787 2.88567C8.04368 2.92358 8.1195 2.99939 8.15741 3.0752L15.0188 16.1526H0.5V16.1147Z" fill="#3DCFB6" fill-opacity="0.5"/>
<path d="M8.99138 10.0118L6.33783 5.0083L0.5 16.1146L8.99138 10.0118Z" fill="#3DCFB6" fill-opacity="0.5"/>
<path d="M15.0187 16.1146L13.1234 4.43975C13.0854 4.17441 12.858 4.02279 12.5926 4.0607C12.5168 4.0607 12.4031 4.13651 12.3273 4.17441L0.5 16.1146L7.09598 19.8294C7.51297 20.0568 8.00577 20.0568 8.42276 19.8294L15.0187 16.1146Z" fill="#3DCFB6"/>
</svg>
