<svg width="20" height="20" viewBox="0 0 20 20" fill="none" xmlns="http://www.w3.org/2000/svg">
<path d="M19.9818 1.59163C19.8361 0.827649 19.2444 0.209186 18.4888 0.0454752C18.4524 0.0363802 18.416 0.0363802 18.3705 0.0272851C18.3614 0.0272851 18.3523 0.00909504 18.3432 0H1.6477C1.6386 0.00909504 1.62949 0.0272851 1.61129 0.0272851C0.855712 0.154616 0.21848 0.754889 0.0455166 1.51887C0.0364133 1.54616 0.0182066 1.58254 0 1.61892V18.3447C0.00910332 18.3629 0.02731 18.372 0.02731 18.3902C0.209376 19.2269 0.719162 19.7453 1.54756 19.9545C1.57487 19.9636 1.59308 19.9818 1.61129 20H18.3705C18.3887 19.9909 18.3978 19.9727 18.416 19.9636C19.2444 19.7726 19.7542 19.2724 19.9636 18.4447C19.9727 18.4175 19.9636 18.3811 19.9727 18.3538C19.9727 18.3447 19.9909 18.3356 20 18.3265V1.6462C20 1.62801 19.9818 1.61892 19.9818 1.59163ZM11.6067 11.0869H11.5066C10.751 11.0869 9.98635 11.0869 9.23077 11.0869C9.19436 11.0869 9.15794 11.0869 9.12153 11.0869C9.12153 11.096 9.11243 11.096 9.11243 11.105C9.11243 11.1414 9.11243 11.1778 9.11243 11.2142V18.2265H7.1188V11.096H4.61538V9.50432H11.5976V11.0869H11.6067ZM18.325 15.8436C18.3068 16.1528 18.2613 16.4529 18.1338 16.744C18.0974 16.8349 18.0701 16.9168 18.0246 17.0077C17.8607 17.3533 17.5876 17.5989 17.269 17.799C16.9049 18.0264 16.5043 18.1537 16.0856 18.2356C15.6213 18.3265 15.157 18.3538 14.6837 18.3356C14.4561 18.3265 14.2285 18.3265 14.0009 18.2992C13.4638 18.2356 12.9358 18.1173 12.4442 17.8809C12.4169 17.8718 12.3805 17.8263 12.3805 17.799C12.3805 17.2078 12.3805 16.6166 12.3805 16.0255C12.3805 16.0164 12.3805 16.0073 12.3805 15.9891C12.5262 16.0891 12.6718 16.1892 12.8175 16.271C13.1725 16.4802 13.564 16.6257 13.9645 16.7167C14.3104 16.7985 14.6564 16.8076 15.0023 16.7895C15.2663 16.7804 15.5303 16.7167 15.767 16.5985C15.9763 16.4893 16.1493 16.3438 16.1948 16.0982C16.2403 15.8799 16.2221 15.6617 16.0947 15.4707C15.9126 15.1978 15.6577 15.025 15.3755 14.8795C15.0569 14.7249 14.7383 14.5885 14.4106 14.4429C13.9281 14.2246 13.4547 13.9882 13.0633 13.6244C12.7447 13.3242 12.508 12.9695 12.3987 12.5421C12.335 12.2874 12.3168 12.0327 12.3259 11.7781C12.335 11.1505 12.5626 10.6139 13.0086 10.1683C13.3728 9.80446 13.8188 9.58618 14.3104 9.45885C14.6472 9.37699 14.9841 9.31332 15.33 9.30423C15.5758 9.30423 15.8216 9.27694 16.0583 9.28604C16.4315 9.29513 16.7956 9.31332 17.1598 9.40427C17.3965 9.46794 17.6422 9.53161 17.8789 9.58618C17.9244 9.59527 17.9426 9.62256 17.9426 9.67713C17.9426 10.241 17.9426 10.814 17.9426 11.3779C17.9426 11.3961 17.9426 11.4143 17.9335 11.4416C17.8607 11.3961 17.797 11.3597 17.7333 11.3233C17.442 11.1596 17.1325 11.0505 16.8138 10.9686C16.4588 10.8868 16.1038 10.8322 15.7396 10.8413C15.4939 10.8504 15.239 10.8868 15.0114 10.9686C14.7292 11.0687 14.5016 11.2324 14.4015 11.5325C14.3195 11.769 14.3833 11.9691 14.5289 12.1601C14.711 12.3965 14.9568 12.5603 15.2208 12.6876C15.5758 12.8604 15.9399 13.0059 16.2858 13.1696C16.6864 13.3606 17.0869 13.5516 17.4238 13.8336C17.7151 14.0791 17.9791 14.352 18.1247 14.7158C18.2066 14.9341 18.2795 15.1614 18.2795 15.407C18.3159 15.5525 18.3341 15.698 18.325 15.8436Z" fill="#3DCFB6"/>
</svg>
