<?xml version="1.0" encoding="UTF-8"?><svg id="Ebene_1" xmlns="http://www.w3.org/2000/svg" viewBox="0 0 2017.01 505.13"><defs><style>.cls-1{fill:#fff;}</style></defs><path class="cls-1" d="m472.11,317.76c0-7.97,1.71-16.79,5.41-25.9,15.37,11.95,36.43,15.94,52.08,15.94,14.23,0,21.35-3.13,21.35-7.97,0-2.85-2.85-4.55-8.25-5.98l-22.2-5.41c-31.31-7.68-47.25-26.18-47.25-55.21,0-43.83,40.41-68.87,100.75-68.87,55.21,0,76.84,17.65,76.84,50.94,0,10.53-2.85,21.92-7.68,33.58-20.49-15.08-44.4-19.92-60.62-19.92-14.51,0-21.35,2.85-21.35,7.4,0,2.56,2.85,4.27,8.25,5.41l30.45,6.26c33.58,6.83,49.52,25.9,49.52,54.64,0,41.27-31.88,69.73-94.77,69.73s-82.54-20.78-82.54-54.64Z"/><path class="cls-1" d="m657.11,377.24c0-11.95,3.13-24.48,6.26-37.85l1.42-49.52c.85-29.88-3.7-52.94-8.54-69.73,13.95-9.96,31.59-15.37,50.09-15.37,30.45,0,44.11,14.52,44.11,35.58,0,2.56-.28,5.12-.57,7.68h5.69c9.96-27.32,29.31-43.26,54.64-43.26,34.72,0,58.63,29.03,58.63,82.54s-29.31,85.1-65.46,85.1c-20.21,0-37-9.96-43.83-22.2h-2.85c.85,28.46,4.84,44.11,7.4,51.23-16.22,10.81-35.29,15.37-56.35,15.37-34.72,0-50.66-15.37-50.66-39.56Zm100.18-50.38c12.24-1.42,18.5-15.94,18.5-30.45s-5.41-23.05-15.08-23.05h-1.99l-1.42,53.51Z"/><path class="cls-1" d="m872.85,331.14c0-27.89,21.35-48.95,75.42-48.95,5.98,0,11.67.28,18.5,1.14v-17.36c-13.38,7.68-29.03,11.38-41.55,11.38-25.61,0-38.71-12.81-38.71-36.43,0-9.11,1.14-19.64,6.83-33.58,9.96,2.56,18.5,3.7,34.15,3.7,28.75,0,50.38-7.12,75.42-7.12,37.85,0,56.64,17.65,56.64,51.23,0,11.67-2.85,25.61-2.85,34.15,0,5.98,3.13,9.39,8.82,9.39,2.56,0,7.12-.85,10.25-2.85,2.56,7.12,3.7,13.95,3.7,20.49,0,31.02-25.9,56.07-61.19,56.07-29.03,0-44.68-15.37-42.98-35.29h-5.69c-6.26,24.19-27.04,35.29-50.38,35.29-28.46,0-46.39-18.21-46.39-41.27Zm93.92-10.53v-23.91h-4.27c-6.55,4.84-9.11,12.81-9.11,17.93,0,5.98,3.42,8.54,7.12,8.54,2.28,0,5.12-1.14,6.26-2.56Z"/><path class="cls-1" d="m1089.15,368.42l3.42-68.59c1.42-31.02-1.42-54.93-10.25-82.54,14.8-8.25,30.17-12.52,49.24-12.52,37.28,0,45.25,18.78,41.84,54.36h7.12c0-38.42,14.8-55.21,35.29-55.21,11.38,0,20.78,3.98,31.31,3.13,6.26,10.53,11.38,26.47,11.38,43.54,0,25.61-12.52,51.23-37.57,51.23-14.52,0-25.33-4.55-32.45-15.37h-2.85l1.99,81.97h-98.47Z"/><path class="cls-1" d="m1269.02,368.42l3.42-68.59c1.42-31.02-1.42-54.93-10.25-82.54,14.8-8.25,30.17-12.52,49.24-12.52,37.28,0,45.25,18.78,41.84,54.36h7.12c0-38.42,14.8-55.21,35.29-55.21,11.38,0,20.78,3.98,31.31,3.13,6.26,10.53,11.38,26.47,11.38,43.54,0,25.61-12.52,51.23-37.57,51.23-14.52,0-25.33-4.55-32.45-15.37h-2.85l1.99,81.97h-98.47Z"/><path class="cls-1" d="m1440.36,291.86c0-52.94,40.41-88.51,103.88-88.51,59.2,0,98.19,32.45,98.19,84.53s-40.98,85.95-103.88,85.95c-58.34,0-98.19-31.88-98.19-81.97Zm112.42-5.12c0-19.92-4.27-30.45-11.38-30.45s-11.38,11.1-11.38,33.01c0,19.92,4.27,30.45,11.38,30.45s11.38-11.1,11.38-33.01Z"/><path class="cls-1" d="m1653.25,299.54c0-12.81,2.28-32.16,2.28-41.84,0-13.09-2.28-26.75-9.39-37.85,13.38-9.68,29.88-15.08,49.52-15.08,32.16,0,52.65,14.8,52.65,58.91,0,26.75-4.55,40.41-4.55,49.52,0,3.42,1.42,5.12,3.42,5.12,5.69,0,15.08-14.52,15.08-49.52,0-17.36-1.42-32.16-9.68-48.95,13.38-9.68,29.31-15.08,49.52-15.08,32.45,0,50.38,15.08,50.66,58.91,0,26.75-4.55,40.41-4.55,49.52,0,3.42,1.14,5.12,3.42,5.12,5.41,0,15.08-14.52,15.08-49.52,0-17.36-1.71-32.16-9.68-48.95,13.09-9.68,29.03-15.08,49.24-15.08,32.44,0,50.38,15.08,50.38,51.23,0,66.88-46.68,116.4-108.15,116.4-22.2,0-39.56-7.97-51.23-24.48-14.8,15.65-40.13,24.48-67.17,24.48-44.11,0-76.84-24.19-76.84-72.86Z"/><path d="m301.58,395.66c.1.86.29,2.11.61,3.58-.32-1.47-.5-2.71-.61-3.58h0Z"/><path class="cls-1" d="m401.2,271.13l-7.37-9.05c-.2-.25-21.54-25.34-77.82-24.49-12.39.17-24.96,3.83-37.05,9.44-3.45,1.6-6.87,3.37-10.23,5.25-8.4,4.72-16.46,10.21-23.92,15.93-2.99,2.29-5.88,4.61-8.67,6.93-2.78,2.32-5.46,4.64-8.01,6.93-5.1,4.57-9.7,9-13.68,13.01-1.99,2-3.82,3.9-5.48,5.65-2.49,2.63-4.59,4.94-6.26,6.81-1.11,1.25-2.02,2.3-2.73,3.12-1.06,1.23-1.64,1.94-1.7,2.01-12.82,15.42-28.83,24.25-43.37,29.32,1.89,4.38,4.04,8.64,6.42,12.77s4.99,8.13,7.83,11.99c2.83,3.85,5.88,7.56,9.14,11.11s6.71,6.92,10.35,10.12c3.64,3.2,7.47,6.22,11.47,9.04,4,2.82,8.17,5.45,12.5,7.86,4.32,2.41,8.8,4.61,13.42,6.58,4.62,1.97,9.37,3.7,14.25,5.19,23.14,7.07,47.06,8.11,69.67,3.28,6.16-1.32,12.23-3.07,18.16-5.26,3.95-1.46,7.84-3.11,11.65-4.95,19-9.19,34.71-22.47,46.13-38.7,2.28-3.25,4.4-6.61,6.33-10.09,3.87-6.95,7.01-14.33,9.38-22.08,3.35-10.96,4.97-22.33,4.89-33.74-.04-5.7-.5-11.42-1.38-17.09s-2.19-11.32-3.91-16.88Z"/><path class="cls-1" d="m380.16,123.46c-15.59-10.44-31.77-16.71-32.07-16.82-.22-.09-10.27-4.4-46.23-20.91-1,7.02-4.07,20.51-12.86,32.96-.31.44-.58.9-.91,1.34,1.95-.34,4.19-.7,6.64-1.04,16.38-2.28,43.02-3.91,68.54,3.59,14.66,4.31,28.95,11.63,40.69,23.6-5.39-8.78-14.48-16.49-23.78-22.71Z"/><path class="cls-1" d="m413.6,238.83c-1.3-4.82-3.69-9.84-7.7-14.83-.73.74-1.7,1.58-2.95,2.4-.62.41-1.32.82-2.09,1.22-2.7,1.38-6.31,2.57-11.09,3-2.73.24-5.83.23-9.35-.14-1.76-.18-3.63-.46-5.6-.83-5.93-1.13-12.85-3.19-20.91-6.53-2.69-1.11-5.5-2.37-8.44-3.79-7.36-3.54-15.54-8.05-24.63-13.76-25.34-15.9-48.89-23.17-69.98-21.62-1.85.14-3.7.36-5.52.68-3.65.63-7.23,1.61-10.7,2.93-3.47,1.31-6.83,2.96-10.05,4.92-.12.08-.24.17-.36.24-4.68,2.9-9.04,6.45-12.95,10.62-15.12,16.15-54.19,53.98-90.76,56.93-2.44.42-23.58,3.6-61.21-5.06-12.54-2.89-26.92-7.09-43.05-13.14.41,3.4,1.13,8.28,2.38,14.08.21.97.43,1.96.67,2.97,1.92,8.11,4.84,17.68,9.29,27.35.56,1.21,1.14,2.42,1.74,3.63,17.24,34.49,45.6,51.98,84.3,51.98.21,0,.41,0,.62,0,.62,0,48.95,1.2,77.9-33.63.5-.61,10.61-12.98,26.55-27.76,2.45-2.27,5.04-4.61,7.76-6.96,1.36-1.18,2.75-2.36,4.16-3.55,11.52-9.63,22.71-17.5,33.53-23.6,3.61-2.03,7.17-3.87,10.69-5.51,14.08-6.55,27.47-9.94,40.07-10.12,59.79-.85,82.15,25.8,83.07,26.94l10.05,12.34c.78-1.41,1.69-3.25,2.57-5.42,1.17-2.9,2.26-6.4,2.84-10.32.29-1.96.46-4.02.45-6.16-.02-3.03-.42-6.22-1.3-9.5Z"/><path class="cls-1" d="m413.36,161.85l-4.22.52h0s0,0,0,0c-35.42-53.94-116.23-37.42-127.45-34.82-14.76,16.72-33.56,43.69-38.39,50.7,2.33-.44,4.69-.76,7.07-.93,22.53-1.66,47.44,5.95,74,22.62,44.76,28.08,69.56,27.76,77.2,18.96.09-.11.21-.18.31-.28l.63-.65c.12-.12,12.3-13.05,10.19-29.23l-.74-5.57,3.42-.34h0s.26-.02.26-.02c14.19-1.56,25.92-9.6,31.46-14.06-6.37-3.15-19.56-8.45-33.73-6.9Zm-31.09,18.7c-4.43,0-8.03-6.16-8.03-13.77s3.6-13.77,8.03-13.77,8.03,6.16,8.03,13.77-3.6,13.77-8.03,13.77Z"/><circle class="cls-1" cx="377.99" cy="158.86" r="6.7"/></svg>